<svg id="visual" viewBox="0 0 900 600" width="900" height="600" xmlns="http://www.w3.org/2000/svg" xmlns:xlink="http://www.w3.org/1999/xlink" version="1.1"><rect x="0" y="0" width="900" height="600" fill="#001220"></rect><path d="M0 353L21.5 360.5C43 368 86 383 128.8 386.3C171.7 389.7 214.3 381.3 257.2 387.5C300 393.7 343 414.3 385.8 412.2C428.7 410 471.3 385 514.2 377.8C557 370.7 600 381.3 642.8 382.2C685.7 383 728.3 374 771.2 382.8C814 391.7 857 418.3 878.5 431.7L900 445L900 601L878.5 601C857 601 814 601 771.2 601C728.3 601 685.7 601 642.8 601C600 601 557 601 514.2 601C471.3 601 428.7 601 385.8 601C343 601 300 601 257.2 601C214.3 601 171.7 601 128.8 601C86 601 43 601 21.5 601L0 601Z" fill="#fa7268"></path><path d="M0 439L21.5 439.5C43 440 86 441 128.8 440.7C171.7 440.3 214.3 438.7 257.2 437C300 435.3 343 433.7 385.8 429.7C428.7 425.7 471.3 419.3 514.2 421.2C557 423 600 433 642.8 435.7C685.7 438.3 728.3 433.7 771.2 437.5C814 441.3 857 453.7 878.5 459.8L900 466L900 601L878.5 601C857 601 814 601 771.2 601C728.3 601 685.7 601 642.8 601C600 601 557 601 514.2 601C471.3 601 428.7 601 385.8 601C343 601 300 601 257.2 601C214.3 601 171.7 601 128.8 601C86 601 43 601 21.5 601L0 601Z" fill="#ef5f67"></path><path d="M0 469L21.5 469.5C43 470 86 471 128.8 469.8C171.7 468.7 214.3 465.3 257.2 464.3C300 463.3 343 464.7 385.8 460.7C428.7 456.7 471.3 447.3 514.2 453.3C557 459.3 600 480.7 642.8 487.3C685.7 494 728.3 486 771.2 476C814 466 857 454 878.5 448L900 442L900 601L878.5 601C857 601 814 601 771.2 601C728.3 601 685.7 601 642.8 601C600 601 557 601 514.2 601C471.3 601 428.7 601 385.8 601C343 601 300 601 257.2 601C214.3 601 171.7 601 128.8 601C86 601 43 601 21.5 601L0 601Z" fill="#e34c67"></path><path d="M0 522L21.5 519.5C43 517 86 512 128.8 512.8C171.7 513.7 214.3 520.3 257.2 522.7C300 525 343 523 385.8 523.8C428.7 524.7 471.3 528.3 514.2 524.7C557 521 600 510 642.8 504.2C685.7 498.3 728.3 497.7 771.2 503.7C814 509.7 857 522.3 878.5 528.7L900 535L900 601L878.5 601C857 601 814 601 771.2 601C728.3 601 685.7 601 642.8 601C600 601 557 601 514.2 601C471.3 601 428.7 601 385.8 601C343 601 300 601 257.2 601C214.3 601 171.7 601 128.8 601C86 601 43 601 21.5 601L0 601Z" fill="#d53867"></path><path d="M0 541L21.5 546C43 551 86 561 128.8 564.5C171.7 568 214.3 565 257.2 562.5C300 560 343 558 385.8 552C428.7 546 471.3 536 514.2 538.7C557 541.3 600 556.7 642.8 560C685.7 563.3 728.3 554.7 771.2 552.8C814 551 857 556 878.5 558.5L900 561L900 601L878.5 601C857 601 814 601 771.2 601C728.3 601 685.7 601 642.8 601C600 601 557 601 514.2 601C471.3 601 428.7 601 385.8 601C343 601 300 601 257.2 601C214.3 601 171.7 601 128.8 601C86 601 43 601 21.5 601L0 601Z" fill="#c62368"></path></svg>